<?xml version="1.0" standalone="no"?><!DOCTYPE svg PUBLIC "-//W3C//DTD SVG 1.1//EN" "http://www.w3.org/Graphics/SVG/1.1/DTD/svg11.dtd"><svg t="1776535651301" class="icon" viewBox="0 0 1024 1024" version="1.1" xmlns="http://www.w3.org/2000/svg" p-id="11107" xmlns:xlink="http://www.w3.org/1999/xlink" width="200" height="200"><path d="M860.8 512.83h59.96v59.96H860.8zM800.86 632.73h59.95v59.96h-59.95z" fill="#333333" p-id="11108"></path><path d="M800.86 572.78h59.95v59.95h-59.95z" fill="#333333" p-id="11109"></path><path d="M800.86 512.83h59.95v59.96h-59.95zM800.86 452.88h59.95v59.95h-59.95zM740.9 692.68h59.96v59.96H740.9z" fill="#333333" p-id="11110"></path><path d="M740.9 632.73h59.96v59.96H740.9zM740.9 572.78h59.96v59.95H740.9z" fill="#F2A825" p-id="11111"></path><path d="M740.9 512.83h59.96v59.96H740.9zM740.9 452.88h59.96v59.95H740.9z" fill="#F2A825" p-id="11112"></path><path d="M740.9 392.92h59.96v59.96H740.9zM680.95 752.64h59.95v59.95h-59.95z" fill="#333333" p-id="11113"></path><path d="M680.95 692.68h59.95v59.96h-59.95z" fill="#F2A825" p-id="11114"></path><path d="M680.95 632.73h59.95v59.96h-59.95z" fill="#F2A825" p-id="11115"></path><path d="M680.95 572.78h59.95v59.95h-59.95z" fill="#FFCD50" p-id="11116"></path><path d="M680.95 512.83h59.95v59.96h-59.95zM680.95 452.88h59.95v59.95h-59.95z" fill="#F2A825" p-id="11117"></path><path d="M680.95 392.92h59.95v59.96h-59.95z" fill="#333333" p-id="11118"></path><path d="M680.95 332.98h59.95v59.95h-59.95zM680.95 273.02h59.95v59.96h-59.95z" fill="#333333" p-id="11119"></path><path d="M680.95 213.08h59.95v59.95h-59.95zM621 752.64h59.96v59.95H621zM621 692.68h59.96v59.96H621z" fill="#333333" p-id="11120"></path><path d="M621 632.73h59.96v59.96H621zM621 572.78h59.96v59.95H621z" fill="#333333" p-id="11121"></path><path d="M621 512.83h59.96v59.96H621zM621 452.88h59.96v59.95H621z" fill="#333333" p-id="11122"></path><path d="M621 392.92h59.96v59.96H621z" fill="#FFCD50" p-id="11123"></path><path d="M621 332.98h59.96v59.95H621z" fill="#333333" p-id="11124"></path><path d="M621 273.02h59.96v59.96H621z" fill="#75C7F9" p-id="11125"></path><path d="M621 213.08h59.96v59.95H621z" fill="#75C7F9" p-id="11126"></path><path d="M621 153.12h59.96v59.96H621zM561.05 752.64H621v59.95h-59.95z" fill="#333333" p-id="11127"></path><path d="M561.05 692.68H621v59.96h-59.95z" fill="#F2A825" p-id="11128"></path><path d="M561.05 632.73H621v59.96h-59.95zM561.05 572.78H621v59.95h-59.95z" fill="#F2A825" p-id="11129"></path><path d="M561.05 512.83H621v59.96h-59.95zM561.05 452.88H621v59.95h-59.95z" fill="#F2A825" p-id="11130"></path><path d="M561.05 392.92H621v59.96h-59.95z" fill="#333333" p-id="11131"></path><path d="M561.05 332.98H621v59.95h-59.95zM561.05 273.02H621v59.96h-59.95z" fill="#333333" p-id="11132"></path><path d="M561.05 213.08H621v59.95h-59.95zM501.1 752.64h59.96v59.95H501.1z" fill="#333333" p-id="11133"></path><path d="M501.1 692.68h59.96v59.96H501.1z" fill="#FFCD50" p-id="11134"></path><path d="M501.1 632.73h59.96v59.96H501.1zM501.1 572.78h59.96v59.95H501.1z" fill="#FFCD50" p-id="11135"></path><path d="M501.1 512.83h59.96v59.96H501.1zM501.1 452.88h59.96v59.95H501.1zM501.1 392.92h59.96v59.96H501.1z" fill="#FFCD50" p-id="11136"></path><path d="M501.1 332.98h59.96v59.95H501.1z" fill="#333333" p-id="11137"></path><path d="M501.1 273.02h59.96v59.96H501.1z" fill="#75C7F9" p-id="11138"></path><path d="M501.1 213.08h59.96v59.95H501.1z" fill="#BBE7FF" p-id="11139"></path><path d="M501.1 153.12h59.96v59.96H501.1zM441.15 752.64h59.95v59.95h-59.95zM441.15 692.68h59.95v59.96h-59.95z" fill="#333333" p-id="11140"></path><path d="M441.15 632.73h59.95v59.96h-59.95zM441.15 572.78h59.95v59.95h-59.95z" fill="#333333" p-id="11141"></path><path d="M441.15 512.83h59.95v59.96h-59.95zM441.15 452.88h59.95v59.95h-59.95z" fill="#333333" p-id="11142"></path><path d="M441.15 392.92h59.95v59.96h-59.95z" fill="#FFD578" p-id="11143"></path><path d="M441.15 332.98h59.95v59.95h-59.95z" fill="#333333" p-id="11144"></path><path d="M441.15 273.02h59.95v59.96h-59.95z" fill="#BBE7FF" p-id="11145"></path><path d="M441.15 213.08h59.95v59.95h-59.95z" fill="#BBE7FF" p-id="11146"></path><path d="M441.15 153.12h59.95v59.96h-59.95zM381.2 752.64h59.96v59.95H381.2z" fill="#333333" p-id="11147"></path><path d="M381.2 692.68h59.96v59.96H381.2z" fill="#FFCD50" p-id="11148"></path><path d="M381.2 632.73h59.96v59.96H381.2z" fill="#FFD7D7" p-id="11149"></path><path d="M381.2 572.78h59.96v59.95H381.2z" fill="#FF8D8D" p-id="11150"></path><path d="M381.2 512.83h59.96v59.96H381.2zM381.2 452.88h59.96v59.95H381.2z" fill="#FFCD50" p-id="11151"></path><path d="M381.2 392.92h59.96v59.96H381.2z" fill="#333333" p-id="11152"></path><path d="M381.2 332.98h59.96v59.95H381.2zM381.2 273.02h59.96v59.96H381.2z" fill="#333333" p-id="11153"></path><path d="M381.2 213.08h59.96v59.95H381.2zM321.25 752.64h59.95v59.95h-59.95z" fill="#333333" p-id="11154"></path><path d="M321.25 692.68h59.95v59.96h-59.95z" fill="#FFCD50" p-id="11155"></path><path d="M321.25 632.73h59.95v59.96h-59.95zM321.25 572.78h59.95v59.95h-59.95z" fill="#FFAEAE" p-id="11156"></path><path d="M321.25 512.83h59.95v59.96h-59.95zM321.25 452.88h59.95v59.95h-59.95zM321.25 392.92h59.95v59.96h-59.95z" fill="#FFCD50" p-id="11157"></path><path d="M321.25 332.98h59.95v59.95h-59.95zM261.29 752.64h59.96v59.95h-59.96z" fill="#333333" p-id="11158"></path><path d="M261.29 692.68h59.96v59.96h-59.96z" fill="#FFCD50" p-id="11159"></path><path d="M261.29 632.73h59.96v59.96h-59.96zM261.29 572.78h59.96v59.95h-59.96z" fill="#FFCD50" p-id="11160"></path><path d="M261.29 512.83h59.96v59.96h-59.96zM261.29 452.88h59.96v59.95h-59.96z" fill="#333333" p-id="11161"></path><path d="M261.29 392.92h59.96v59.96h-59.96z" fill="#FFD578" p-id="11162"></path><path d="M261.29 332.98h59.96v59.95h-59.96zM201.34 692.68h59.96v59.96h-59.96z" fill="#333333" p-id="11163"></path><path d="M201.34 632.73h59.96v59.96h-59.96zM201.34 572.78h59.96v59.95h-59.96z" fill="#FFCD50" p-id="11164"></path><path d="M201.34 512.83h59.96v59.96h-59.96zM201.34 452.88h59.96v59.95h-59.96z" fill="#FFD578" p-id="11165"></path><path d="M201.34 392.92h59.96v59.96h-59.96z" fill="#333333" p-id="11166"></path><path d="M201.34 332.98h59.96v59.95h-59.96zM201.34 273.02h59.96v59.96h-59.96zM141.39 632.73h59.95v59.96h-59.95zM141.39 572.78h59.95v59.95h-59.95z" fill="#333333" p-id="11167"></path><path d="M141.39 512.83h59.95v59.96h-59.95zM141.39 452.88h59.95v59.95h-59.95zM141.39 213.08h59.95v59.95h-59.95z" fill="#333333" p-id="11168"></path></svg>